<svg xmlns="http://www.w3.org/2000/svg" xml:space="preserve" id="Layer_1" x="0" y="0" version="1.1" viewBox="0 0 512 512"><style>.st0{fill:#ea4f06}</style><circle cx="72.6" cy="242" r="72.6" class="st0"/><circle cx="374.9" cy="82.8" r="72.6" class="st0"/><path d="M51.8 343c36.6 92.2 126.4 152.2 225.6 150.5-14.2-17.8-22-39.8-22.3-62.6-6.5-.9-12.7-2-18.7-3.2-52.1-11-96.3-45.1-120.2-92.6-20 9.5-42.6 12.3-64.4 7.9" class="st0"/><circle cx="358.6" cy="429.2" r="72.6" class="st0"/><path d="M423.4 348.3c17.7 14.2 30.3 33.8 35.8 55.9 65.7-81.4 70.6-196.1 12.2-282.8-8.3 20.6-23 38-42 49.5 30 56 27.7 123.7-6 177.4M72.8 138.6c7.2 0 14.4.7 21.5 2.2 12 2.6 23.4 7.2 33.7 13.8 32.4-47.2 85.8-75.8 143-76.5.2-5.7.9-11.4 2-17 3.5-16 10.6-31 20.9-43.7-93.5-7.5-182.8 39.9-228.8 121.5 2.6-.2 5.1-.3 7.7-.3" class="st0"/></svg>